<svg xmlns="http://www.w3.org/2000/svg" viewBox="0 0 24 24" fill="currentColor">
  <defs>
    <mask id="cracked-icon-mask">
      <!-- The mask content: white is opaque, black is transparent -->
      <!-- The base player icon shape in white -->
      <path fill="white" d="M18.685 19.097A9.723 9.723 0 0021.75 12c0-5.385-4.365-9.75-9.75-9.75S2.25 6.615 2.25 12a9.723 9.723 0 003.065 7.097A9.716 9.716 0 0012 21.75a9.716 9.716 0 006.685-2.653zm-12.54-1.285A7.486 7.486 0 0112 15a7.486 7.486 0 015.855 2.812A8.224 8.224 0 0112 20.25a8.224 8.224 0 01-5.855-2.438zM15.75 9a3.75 3.75 0 11-7.5 0 3.75 3.75 0 017.5 0z" />
      <!-- A jagged line in black to "cut out" the crack from the shape -->
      <path stroke="black" stroke-width="1.5" stroke-linecap="round" d="M16.5 6.5 L 14 10 L 16.5 13.5 L 13 18" />
    </mask>
  </defs>
  <!-- A rectangle that fills the entire viewbox, with the mask applied to it, resulting in a cracked icon shape -->
  <rect x="0" y="0" width="24" height="24" mask="url(#cracked-icon-mask)" />
</svg>
